<?xml version="1.0" standalone="no"?>
<!DOCTYPE svg PUBLIC "-//W3C//DTD SVG 20010904//EN"
 "http://www.w3.org/TR/2001/REC-SVG-20010904/DTD/svg10.dtd">
<svg version="1.0" xmlns="http://www.w3.org/2000/svg"
 width="512.000000pt" height="512.000000pt" viewBox="0 0 512.000000 512.000000"
 preserveAspectRatio="xMidYMid meet">

<g transform="translate(0.000000,512.000000) scale(0.100000,-0.100000)"
fill="#000000" stroke="none">
<path d="M1431 4979 c-503 -36 -822 -162 -1015 -401 -162 -201 -245 -486 -276
-943 -13 -202 -13 -2096 0 -2245 37 -410 143 -697 332 -895 179 -189 405 -287
788 -341 111 -16 215 -18 914 -19 750 -1 791 0 808 17 10 10 18 33 18 53 0 66
36 63 -790 68 -453 3 -786 9 -850 16 -416 45 -651 134 -809 307 -138 151 -216
367 -258 718 -13 108 -16 302 -20 1096 -6 1201 3 1420 73 1698 50 204 110 318
229 438 155 157 356 235 715 280 94 11 314 17 895 25 821 11 1334 2 1605 -26
562 -60 820 -221 946 -593 106 -312 130 -746 115 -2042 -8 -589 -14 -805 -25
-900 -68 -550 -240 -797 -644 -924 -168 -53 -383 -80 -734 -92 -175 -6 -200
-9 -214 -26 -26 -27 -22 -77 7 -101 23 -19 34 -19 219 -14 426 14 706 63 916
162 389 182 556 503 604 1160 13 182 13 2024 0 2210 -65 926 -385 1247 -1310
1315 -161 12 -2072 11 -2239 -1z"/>
<path d="M1110 3470 c-27 -27 -25 -66 5 -95 24 -25 27 -25 198 -25 157 0 176
-2 191 -19 9 -10 36 -69 60 -132 170 -449 409 -826 559 -884 86 -33 155 5 176
95 16 71 14 601 -3 681 -15 70 -52 152 -92 205 -13 17 -24 36 -24 42 0 9 76
12 284 12 311 0 296 3 296 -59 0 -53 69 -81 116 -47 15 12 19 26 18 74 -1 70
-24 116 -74 149 -32 23 -37 23 -354 23 -294 0 -324 -2 -356 -19 -55 -29 -75
-64 -75 -130 1 -38 6 -66 18 -82 9 -13 33 -46 52 -72 19 -27 40 -65 46 -85 15
-46 25 -613 11 -637 -7 -14 -16 -8 -57 37 -136 151 -294 441 -410 751 -55 145
-101 209 -163 227 -20 5 -119 10 -219 10 -170 0 -184 -1 -203 -20z"/>
<path d="M3520 3474 c-62 -27 -89 -65 -185 -259 -139 -281 -281 -494 -390
-588 l-45 -38 0 244 c0 219 -2 247 -17 265 -27 32 -64 37 -96 12 l-27 -21 0
-265 c0 -285 3 -307 53 -353 77 -70 229 18 379 219 84 112 161 245 260 445 48
99 98 188 109 198 19 15 46 17 230 17 143 0 209 -3 209 -11 0 -26 -58 -154
-122 -268 -75 -134 -162 -273 -295 -469 -74 -109 -83 -127 -83 -168 0 -69 34
-126 133 -223 172 -168 406 -460 424 -528 13 -54 1 -58 -188 -61 -260 -4 -247
-8 -354 106 -226 243 -365 366 -479 424 -106 55 -219 36 -258 -42 -15 -30 -18
-65 -18 -236 0 -153 -3 -205 -14 -219 -30 -41 -260 -38 -416 5 -209 59 -452
218 -611 401 -207 239 -436 620 -565 941 -47 118 -94 277 -94 321 0 15 -9 36
-20 47 -24 24 -82 27 -100 5 -122 -147 396 -1161 772 -1510 196 -181 389 -290
628 -352 122 -32 332 -37 420 -11 67 21 118 69 131 124 4 22 9 123 9 227 l0
187 28 0 c62 0 251 -155 426 -349 189 -211 178 -206 481 -206 223 0 243 1 279
21 54 28 78 63 84 123 6 70 -13 130 -68 215 -65 99 -232 299 -372 443 -65 67
-118 127 -118 134 0 6 67 114 150 239 82 126 181 283 219 349 148 259 166 404
55 461 -44 23 -494 26 -544 4z"/>
</g>
</svg>
